<?xml version="1.0" encoding="UTF-8" ?>
<!DOCTYPE svg PUBLIC "-//W3C//DTD SVG 1.1//EN" "http://www.w3.org/Graphics/SVG/1.1/DTD/svg11.dtd">
<svg width="148pt" height="274pt" viewBox="0 0 148 274" version="1.1" xmlns="http://www.w3.org/2000/svg">
<g id="#fffffeff">
</g>
<g id="#ef0519ff">
<path fill="#ef0519" opacity="1.00" d=" M 73.49 1.50 C 76.86 1.01 77.65 5.23 78.89 7.50 C 81.17 6.11 83.70 5.21 86.37 5.05 C 86.64 7.23 86.90 9.40 87.20 11.56 C 89.36 12.13 91.90 12.00 93.68 13.53 C 93.94 15.50 93.31 17.50 91.96 18.96 C 88.80 22.54 84.36 24.56 80.73 27.58 C 77.20 27.61 73.67 27.75 70.15 27.71 C 63.44 25.39 54.28 21.05 55.15 12.58 C 57.26 12.26 59.37 11.92 61.49 11.63 C 61.64 9.38 61.88 7.14 62.22 4.91 C 64.87 5.19 67.39 6.06 69.71 7.37 C 70.80 5.32 71.76 3.11 73.49 1.50 Z" />
<path fill="#ef0519" opacity="1.00" d=" M 126.30 54.26 C 129.49 53.81 130.33 57.70 131.84 59.73 C 134.16 58.47 136.67 57.58 139.31 57.25 C 139.52 59.56 139.68 61.88 139.77 64.21 C 142.12 64.47 144.46 64.76 146.77 65.26 C 147.08 72.56 139.94 76.72 134.14 79.30 C 130.16 79.68 126.15 79.53 122.16 79.53 C 115.64 77.29 108.18 72.98 107.21 65.46 C 109.58 64.93 111.98 64.55 114.40 64.27 C 114.48 61.92 114.58 59.58 114.74 57.24 C 117.41 57.68 119.92 58.70 122.52 59.43 C 123.83 57.76 124.55 55.54 126.30 54.26 Z" />
<path fill="#ef0519" opacity="1.00" d=" M 16.40 103.51 C 17.66 101.38 18.35 98.36 21.00 97.58 C 23.63 98.49 24.40 101.41 25.61 103.60 C 27.93 102.35 30.47 100.40 33.22 101.59 C 33.57 103.78 33.59 105.99 33.71 108.20 C 35.78 108.32 37.85 108.44 39.91 108.57 C 40.05 110.22 40.62 112.01 39.58 113.50 C 36.70 118.60 31.34 121.91 25.83 123.55 C 22.64 123.43 19.44 123.37 16.25 123.29 C 11.38 121.46 6.60 118.84 3.31 114.72 C 1.58 113.04 1.58 110.70 2.13 108.51 C 4.20 108.39 6.28 108.29 8.35 108.21 C 8.41 105.86 8.50 103.52 8.67 101.17 C 11.42 101.25 14.02 102.16 16.40 103.51 Z" />
</g>
<g id="#75ba2cff">
<path fill="#75ba2c" opacity="1.00" d=" M 52.37 48.93 C 52.11 38.77 60.00 29.12 70.15 27.71 C 73.67 27.75 77.20 27.61 80.73 27.58 C 90.39 29.33 98.57 37.95 98.53 47.97 C 98.55 66.65 98.56 85.33 98.49 104.00 C 98.37 109.00 98.66 113.98 99.11 118.95 C 99.47 126.96 99.14 134.98 99.27 142.99 C 99.54 149.74 97.88 156.52 99.41 163.21 C 104.28 161.49 107.87 157.43 109.54 152.62 C 113.60 141.18 112.41 128.87 112.49 116.97 C 112.59 108.32 110.83 99.66 112.00 91.04 C 112.71 85.51 117.45 81.78 122.16 79.53 C 126.15 79.53 130.16 79.68 134.14 79.30 C 133.60 79.52 132.53 79.96 131.99 80.18 C 136.10 82.53 140.21 85.74 141.32 90.60 C 143.05 98.60 142.46 106.87 142.90 115.00 C 143.76 126.37 142.45 137.75 141.27 149.05 C 139.06 162.61 134.98 176.40 126.25 187.26 C 119.24 195.55 109.22 200.87 98.62 202.88 C 98.40 224.27 98.59 245.66 98.48 267.05 C 98.43 269.42 97.76 271.72 97.17 274.00 L 54.14 274.00 C 51.54 270.16 52.52 265.35 52.35 261.00 C 52.25 247.35 52.64 233.69 52.13 220.05 C 41.33 216.41 29.67 212.94 21.84 204.11 C 9.99 191.48 7.02 173.48 5.46 156.88 C 4.85 149.14 3.71 141.17 5.53 133.52 C 6.77 128.31 11.51 125.08 16.25 123.29 C 19.44 123.37 22.64 123.43 25.83 123.55 C 29.14 125.66 32.54 128.14 34.07 131.89 C 36.06 136.67 35.33 141.96 35.46 147.00 C 35.30 155.23 35.82 163.86 39.75 171.26 C 42.24 175.64 47.00 177.82 51.65 179.11 C 51.54 172.06 52.47 165.05 52.38 158.00 C 52.33 121.65 52.47 85.29 52.37 48.93 Z" />
</g>
</svg>
